<?xml version="1.0" encoding="utf-8"?>
<!-- Generator: Adobe Illustrator 16.0.0, SVG Export Plug-In . SVG Version: 6.00 Build 0)  -->
<!DOCTYPE svg PUBLIC "-//W3C//DTD SVG 1.1//EN" "http://www.w3.org/Graphics/SVG/1.1/DTD/svg11.dtd">
<svg version="1.1" id="Layer_1" xmlns="http://www.w3.org/2000/svg" xmlns:xlink="http://www.w3.org/1999/xlink" x="0px" y="0px"
	 width="101px" height="101px" viewBox="0 0 101 101" enable-background="new 0 0 101 101" xml:space="preserve">
<g>
	<circle fill="#FFFFFF" cx="50.539" cy="50.855" r="50"/>
	<path fill="#542537" d="M81.309,38.778c-3.292,0-6.169-1.807-7.692-4.48c-1.523,2.674-4.4,4.48-7.692,4.48s-6.169-1.807-7.692-4.48
		c-1.523,2.674-4.4,4.48-7.692,4.48c-3.292,0-6.169-1.807-7.692-4.48c-1.523,2.674-4.4,4.48-7.692,4.48
		c-3.291,0-6.169-1.807-7.692-4.48c-1.523,2.674-4.398,4.48-7.692,4.48c-4.877,0-8.846-3.969-8.846-8.846h2.308
		c0,3.604,2.935,6.538,6.538,6.538c3.606,0,6.539-2.934,6.539-6.538h2.308c0,3.604,2.935,6.538,6.538,6.538
		c3.604,0,6.539-2.934,6.539-6.538h2.308c0,3.604,2.933,6.538,6.538,6.538c3.604,0,6.539-2.934,6.539-6.538h2.307
		c0,3.604,2.934,6.538,6.539,6.538c3.604,0,6.538-2.934,6.538-6.538h2.308c0,3.604,2.934,6.538,6.539,6.538
		c3.604,0,6.538-2.934,6.538-6.538h2.308C90.154,34.81,86.186,38.778,81.309,38.778z"/>
	<path fill="#542537" d="M45.835,81.568c-12.737,0-22.761-11.03-23.182-11.5l-1.378-1.539l1.378-1.54
		c0.421-0.469,10.444-11.5,23.182-11.5c10.125,0,18.087,4.68,23.752,9.766c3.979-4.318,6.1-8.198,6.146-8.286l4.068,2.18
		c-0.213,0.397-2.549,4.671-6.898,9.381c4.35,4.71,6.686,8.982,6.898,9.38l-4.068,2.18c-0.047-0.087-2.177-3.961-6.156-8.275
		C63.912,76.896,55.954,81.568,45.835,81.568z M27.654,68.529c3.033,2.796,10.137,8.424,18.182,8.424
		c8.526,0,15.404-3.995,20.405-8.413c-5.009-4.427-11.895-8.436-20.405-8.436C37.792,60.104,30.688,65.73,27.654,68.529z"/>
	<circle fill="#542537" cx="38.246" cy="67.481" r="2.617"/>
</g>
</svg>
